<svg viewBox="0 0 24 24" fill="none" xmlns="http://www.w3.org/2000/svg">
<path d="M22 3.66667V22H2V3.66667H4.5V4.5C4.5 5.41917 5.2475 6.16667 6.16667 6.16667C7.08583 6.16667 7.83333 5.41917 7.83333 4.5V3.66667H16.1667V4.5C16.1667 5.41917 16.9142 6.16667 17.8333 6.16667C18.7525 6.16667 19.5 5.41917 19.5 4.5V3.66667H22ZM20.3333 8.66667H3.66667V20.3333H20.3333V8.66667ZM18.6667 2.83333C18.6667 2.37333 18.2942 2 17.8333 2C17.3725 2 17 2.37333 17 2.83333V4.5C17 4.96 17.3725 5.33333 17.8333 5.33333C18.2942 5.33333 18.6667 4.96 18.6667 4.5V2.83333ZM7 4.5C7 4.96 6.6275 5.33333 6.16667 5.33333C5.70583 5.33333 5.33333 4.96 5.33333 4.5V2.83333C5.33333 2.37333 5.70583 2 6.16667 2C6.6275 2 7 2.37333 7 2.83333V4.5ZM12.5725 15.735C12.5725 15.0667 12.2242 14.5442 11.6483 14.3225C12.0883 14.1025 12.345 13.65 12.345 13.07C12.345 11.9483 11.2517 11.2792 10.1942 11.2792C8.96333 11.2792 8.035 12.05 7.97833 13.5817H9.34917C9.3375 12.9475 9.575 12.4858 10.2033 12.4858C10.5775 12.4858 10.9808 12.7125 10.9808 13.21C10.9808 13.8383 10.3008 13.9283 9.675 13.8742V14.9408C10.5642 14.9408 11.095 14.9967 11.095 15.7617C11.095 16.365 10.6383 16.635 10.1858 16.635C9.50083 16.635 9.22 16.1233 9.19583 15.425H7.83417C7.8075 17.0017 8.7625 17.8333 10.2025 17.8333C11.4883 17.8333 12.5725 17.0475 12.5725 15.735ZM16.1667 17.8333V11.4017H15.0067C14.8625 12.3633 14.1775 12.6442 13.1975 12.6175V13.7392H14.7408V17.8333H16.1667Z" fill="currentColor"/>
</svg>
