<svg width="24" height="24" viewBox="0 0 24 24" fill="none" xmlns="http://www.w3.org/2000/svg">
<path d="M12.9533 8.80917C12.9242 8.75417 13.2383 8.72417 13.2942 8.72417C13.3558 8.73167 13.1308 9.10083 12.9533 8.80917ZM11.16 6.24917L11.25 6.22333C11.3033 6.26917 11.19 6.3025 11.2075 6.33667C11.2792 6.46583 11.225 6.54333 11.2142 6.61333C11.2025 6.68417 11.1275 6.65333 11.09 6.69083C11.0458 6.74583 11.305 6.75333 11.3083 6.76167C11.3175 6.78917 10.9958 6.83583 11.055 6.90417C11.135 7.0175 11.7417 6.74167 11.645 6.7575C11.8325 6.66333 11.6692 6.65333 11.5642 6.59917C11.5283 6.42 11.4983 6.14333 11.3867 6.0325L11.46 5.9475C11.2883 5.69833 11.16 6.24917 11.16 6.24917V6.24917ZM22 12C22 17.5225 17.5225 22 12 22C6.47667 22 2 17.5225 2 12C2 6.4775 6.47667 2 12 2C17.5225 2 22 6.4775 22 12ZM15.075 7.52417C15.07 7.4025 14.9167 7.2875 14.7567 7.49833C14.6442 7.64333 14.6642 7.86417 14.6033 7.9625C14.5167 8.10833 15.0758 8.245 15.0758 8.1075C15.0967 7.87667 15.6858 8.055 15.8008 8.08667C16.0075 8.14417 16.3367 7.89833 15.9767 7.76917C15.6808 7.66083 15.525 7.545 15.4983 7.33333C15.4983 7.33333 15.655 7.18667 15.5867 7.195C15.405 7.2175 15.075 7.85 15.075 7.52417V7.52417ZM20.3217 12C20.3217 11.1375 20.1742 10.2667 20.0242 9.80667C19.9758 9.66167 19.8667 9.54667 19.725 9.49167C19.5117 9.40833 18.6108 9.98917 18.475 9.70333C18.3858 9.5125 18.205 9.825 17.9983 9.71C17.8983 9.655 17.62 9.28083 17.4942 9.32667C17.2367 9.41917 17.8892 10.13 18.0675 10.2233C18.235 10.0967 18.7775 9.83583 18.8942 10.1917C19.1175 10.8617 18.28 11.5958 17.8517 11.9825C17.2117 12.5608 17.3317 11.6083 16.8958 11.2725C16.6667 11.0967 16.6692 10.7225 16.4375 10.5933C16.3342 10.535 15.86 9.98917 15.8642 9.91583L15.85 10.0542C15.7717 10.1133 15.605 9.83083 15.5875 9.78667C15.5875 10.0325 15.9875 10.4242 16.12 10.6208C16.3458 10.9583 16.4667 11.45 16.7433 11.7258C16.8917 11.8742 17.4583 12.4875 17.6058 12.4742C17.7667 12.46 18.275 12.0925 18.365 12.1133C18.9017 12.24 17.1017 14.7842 16.9308 15.0992C16.79 15.3633 17.0458 16.0167 17.025 16.3292C17.0008 16.69 16.7167 16.8067 16.4475 17.0033C16.1592 17.2142 16.2267 17.6242 15.9842 17.7742C15.5533 18.0392 15.2433 18.9017 14.6317 18.8975C14.4517 18.8967 13.6817 19.1975 13.5808 18.9033C13.5025 18.69 13.3975 18.5283 13.2867 18.3175C13.1783 18.1108 13.2742 17.8967 13.1425 17.7142C13.0517 17.5875 12.7467 17.3 12.7192 17.15C12.7175 17.0208 12.8167 16.6283 12.9525 16.56C13.1433 16.4625 12.9892 16.1783 12.9658 16.0133C12.9258 15.7183 12.7433 15.475 12.5242 15.3042C12.2 15.055 12.3675 14.8567 12.4433 14.5008C12.4433 14.3308 12.34 14.1075 12.1117 14.1742C11.6417 14.3108 11.7842 13.8075 11.4417 13.83C11.195 13.8475 10.9933 14.0042 10.7642 14.0733C10.4758 14.16 10.1808 14.005 9.89583 13.9692C8.72333 13.8208 8.34083 12.4808 8.64667 11.5142C8.6775 11.3558 8.55167 11.0625 8.60667 10.94C8.73833 10.6467 9.00667 10.3175 9.24167 10.095C9.37333 9.97 9.5425 10.0017 9.6975 9.90417C9.93667 9.75333 9.94 9.44333 10.1742 9.25333C10.5075 8.9825 10.9625 8.98833 11.3975 8.93C11.6292 8.89917 12.5108 8.70833 12.65 8.88C12.65 8.91167 12.8092 9.38333 12.6342 9.35667C12.995 9.37583 13.5092 9.98083 13.8517 9.83917C14.0275 9.76583 13.9633 9.22583 14.3242 9.48667C14.5425 9.64333 15.5208 9.71333 15.7242 9.54417C15.8492 9.44083 15.9192 8.76917 15.7675 8.69333C15.8642 8.78917 15.2583 8.79667 15.2017 8.775C15.1017 8.73833 15.0083 8.87 14.8475 8.79583C14.9442 8.84167 14.3092 8.50083 14.6658 8.24C14.5167 8.34917 14.3775 8.20917 14.2167 8.32917C14.1058 8.41917 14.2683 8.47917 14.11 8.5575C13.8583 8.685 13.6683 8.12 13.5733 8.05583C13.4767 7.9925 12.7283 7.4675 12.9317 7.81L13.5892 8.46417C13.5567 8.485 13.4167 8.22583 13.4167 8.415C13.4608 8.3025 13.4333 8.8975 13.33 8.70417C13.2842 8.63 13.405 8.58833 13.335 8.48083C13.335 8.41 13.145 8.34083 13.1083 8.2925C13.0042 8.16333 12.7275 7.87833 12.5775 7.81C12.5358 7.79083 11.9408 7.8825 11.8908 7.90167C11.8325 7.98333 11.7825 8.06917 11.7417 8.16083C11.6183 8.20667 11.5025 8.26583 11.3925 8.33917L11.2617 8.63333C11.205 8.68417 10.6242 8.87583 10.6208 8.88333C10.645 8.82083 10.215 8.74083 10.2433 8.61583C10.275 8.47833 10.4208 8.04917 10.3833 7.8925C10.3433 7.72833 11.2783 8.12917 11.3383 7.69667C11.3625 7.50917 11.3767 7.29083 11.0775 7.25917C11.1342 7.26583 11.6567 7.05417 11.7433 6.95917C11.865 6.81917 12.1442 6.59083 12.3467 6.59083C12.5833 6.59083 12.5325 6.24667 12.6417 6.07833C12.7508 6.1225 12.5833 6.39167 12.7142 6.50083C12.7058 6.415 13.085 6.54833 13.1217 6.52833C13.2083 6.48333 13.6917 6.51 13.6167 6.28333C13.5333 6.0525 13.6592 6.12083 13.7675 6.0725C13.7492 6.08 14.0508 5.55667 14.1025 5.72833C14.0667 5.55167 13.7517 5.79 13.6417 5.78083C13.3875 5.76083 13.495 5.3475 13.5908 5.22667C13.665 5.13083 13.3883 5.01333 13.385 5.19667C13.38 5.47083 13.125 5.71917 13.1842 6.08333C13.2742 6.6325 12.5717 5.95083 12.51 5.98833C12.2767 6.13 12.0858 5.81 12.2067 5.61833C12.33 5.4225 12.6275 5.43167 12.75 5.22167C12.8367 5.07333 12.9375 4.90083 13.0708 4.78833C13.5167 4.41417 13.64 4.71333 14.0842 4.75417C14.5183 4.79417 14.2308 4.8575 14.1708 5.02417C14.1133 5.1825 14.4092 5.23917 14.5117 5.10667C14.57 5.03 14.7025 4.8375 14.76 4.695C14.8342 4.51 15.5108 4.53083 15.0383 4.24833C14.7267 4.0625 13.3683 3.68833 12.4583 3.68833C12.2617 3.68833 12.1242 3.9075 11.9742 4.03167C11.6775 4.2775 10.9175 4.76 10.495 4.61333C10.0625 4.46417 9.13667 5.16333 8.98833 5.16833C8.93417 5.17167 8.99167 4.64 9.28667 4.60083C9.15917 4.62 10.3258 4.01167 10.2942 3.885C10.2558 3.735 7.96167 4.57 8.06417 4.7375C8.11333 4.81417 8.31333 4.81417 8.05083 4.9825C7.90083 5.07333 7.74083 5.65 7.6 5.65C7.17917 5.83417 7.1525 5.2875 6.68417 5.99083L5.93917 6.29083C4.8325 7.46667 4.06667 8.95583 3.78917 10.61C3.77833 10.6758 4.0675 10.7983 4.105 10.8433C4.19833 10.955 4.19833 11.4367 4.24417 11.5942C4.35917 11.9925 4.64333 12.2142 4.86083 12.5767C4.98917 12.7925 5.2025 13.3383 5.135 13.565C5.225 13.4167 6.02667 14.2442 6.17333 14.4167C6.51833 14.8225 6.78417 15.3142 6.22417 15.7158C6.04333 15.8458 6.49917 16.6567 6.26417 16.8558L5.96333 16.9333C5.66667 17.1158 5.80083 17.5633 5.98083 17.7517C7.49583 19.3358 9.63083 20.3242 11.9975 20.3242C16.595 20.3242 20.3217 16.5975 20.3217 12V12ZM10.7325 6.7025C10.8367 6.65667 10.9767 6.65833 10.9917 6.51917C11.0042 6.39583 11.0283 6.48083 11.0583 6.43583C11.0875 6.39167 11.0025 6.32083 10.9667 6.31417C10.9133 6.3025 10.8767 6.37167 10.8425 6.40083L10.7825 6.41667L10.7258 6.48917L10.7325 6.52917L10.66 6.6175C10.5892 6.6875 10.6617 6.73333 10.7325 6.7025V6.7025Z" fill="currentColor"/>
</svg>
