<svg width="24" height="24" viewBox="0 0 24 24" fill="none" xmlns="http://www.w3.org/2000/svg">
<path d="M12 9.85744C12.195 8.9241 13.2892 4.6666 16.485 4.6666C18.335 4.6666 20.3333 5.9591 20.3333 8.83577C20.3333 12.0916 17.3108 15.8941 12 19.3599C6.68917 15.8941 3.66667 12.0916 3.66667 8.83577C3.66667 5.93244 5.64083 4.66494 7.48083 4.66494C10.75 4.66494 11.7683 8.9366 12 9.85744ZM2 8.83577C2 12.2258 4.55 16.7366 12 21.3333C19.45 16.7366 22 12.2258 22 8.83577C22 2.20077 13.96 1.31244 12 5.7216C10.0517 1.3366 2 2.16327 2 8.83577Z" fill="currentColor"/>
</svg>
