<svg viewBox="0 0 84 17" fill="none" xmlns="http://www.w3.org/2000/svg">
<path d="M10.584 4.504L8.136 16H2.472L0 4.504H4.224L5.256 11.872H5.568L6.672 4.504H10.584ZM16.1138 7.648C15.6978 7.648 15.4258 7.792 15.2978 8.08C15.1698 8.352 15.1058 8.776 15.1058 9.352H17.1938V8.776C17.1938 8.024 16.8338 7.648 16.1138 7.648ZM16.2098 4.216C17.8578 4.216 19.0338 4.616 19.7378 5.416C20.4578 6.2 20.8178 7.328 20.8178 8.8C20.8178 8.992 20.7618 9.856 20.6498 11.392H15.1778C15.1778 12.592 15.7298 13.192 16.8338 13.192C17.3618 13.192 18.3938 13.008 19.9298 12.64L20.2658 15.616C18.9218 16.032 17.5778 16.24 16.2338 16.24C14.5858 16.24 13.3218 15.704 12.4418 14.632C11.5618 13.544 11.1218 12.072 11.1218 10.216C11.1218 6.216 12.8178 4.216 16.2098 4.216ZM21.9309 13.36V0.615999H25.8909V12.088C25.8909 12.36 25.9469 12.552 26.0589 12.664C26.1869 12.776 26.4029 12.832 26.7069 12.832L26.3949 16.24H25.0749C24.0189 16.24 23.2269 16.024 22.6989 15.592C22.1869 15.144 21.9309 14.4 21.9309 13.36ZM34.0125 16.024C32.8285 16.168 31.7965 16.24 30.9165 16.24C30.0525 16.24 29.3725 16.016 28.8765 15.568C28.3965 15.104 28.1565 14.312 28.1565 13.192V7.624H27.0045V4.648H28.3485L28.5645 2.44H32.1885V4.648H34.3245L34.1565 7.624H32.1645V12.4C32.1645 12.736 32.3245 12.904 32.6445 12.904C32.6765 12.904 33.1725 12.88 34.1325 12.832L34.0125 16.024ZM39.1337 9.544V16H35.1497V4.504H38.6537L38.8937 5.2H38.9897C39.3577 4.784 39.7257 4.52 40.0937 4.408C40.4777 4.28 41.0937 4.216 41.9417 4.216L41.7737 8.056H40.6697C40.0457 8.056 39.6297 8.152 39.4217 8.344C39.2297 8.536 39.1337 8.936 39.1337 9.544ZM47.4731 7.648C47.0571 7.648 46.7851 7.792 46.6571 8.08C46.5291 8.352 46.4651 8.776 46.4651 9.352H48.5531V8.776C48.5531 8.024 48.1931 7.648 47.4731 7.648ZM47.5691 4.216C49.2171 4.216 50.3931 4.616 51.0971 5.416C51.8171 6.2 52.1771 7.328 52.1771 8.8C52.1771 8.992 52.1211 9.856 52.0091 11.392H46.5371C46.5371 12.592 47.0891 13.192 48.1931 13.192C48.7211 13.192 49.7531 13.008 51.2891 12.64L51.6251 15.616C50.2811 16.032 48.9371 16.24 47.5931 16.24C45.9451 16.24 44.6811 15.704 43.8011 14.632C42.9211 13.544 42.4811 12.072 42.4811 10.216C42.4811 6.216 44.1771 4.216 47.5691 4.216ZM57.2983 5.344C58.1783 4.592 59.1463 4.216 60.2023 4.216C61.2583 4.216 61.9943 4.464 62.4103 4.96C62.8423 5.44 63.0583 6.168 63.0583 7.144V16H58.9783V8.512C58.9783 8.112 58.8023 7.912 58.4503 7.912C58.0023 7.912 57.6263 8.024 57.3223 8.248V16H53.2903V4.504H56.9623L57.2023 5.344H57.2983ZM74.6694 16.144L73.0614 16.24C71.8294 16.24 71.0774 15.832 70.8054 15.016H70.6854C70.1574 15.832 69.3494 16.24 68.2614 16.24C66.8214 16.24 65.8054 15.736 65.2134 14.728C64.6374 13.72 64.3494 12.224 64.3494 10.24C64.3494 8.24 64.6774 6.736 65.3334 5.728C65.9894 4.72 66.9334 4.216 68.1654 4.216C69.0134 4.216 69.6694 4.416 70.1334 4.816V0.615999H74.1414V12.472C74.1414 12.776 74.2054 12.984 74.3334 13.096C74.4614 13.192 74.6934 13.24 75.0294 13.24L74.6694 16.144ZM69.2214 7.6C68.8854 7.6 68.6614 7.808 68.5494 8.224C68.4374 8.624 68.3814 9.208 68.3814 9.976C68.3814 10.728 68.3894 11.24 68.4054 11.512C68.4214 11.784 68.4534 12.064 68.5014 12.352C68.5654 12.624 68.6534 12.816 68.7654 12.928C68.8934 13.024 69.0934 13.072 69.3654 13.072C69.6534 13.072 69.9494 13 70.2534 12.856V7.888C69.9174 7.696 69.5734 7.6 69.2214 7.6ZM75.3069 7.912C75.3069 6.744 75.6589 5.84 76.3629 5.2C77.0829 4.544 78.0669 4.216 79.3149 4.216C80.5629 4.216 81.8269 4.376 83.1069 4.696L82.6989 8.032C81.0669 7.664 79.9709 7.48 79.4109 7.48C79.0749 7.48 78.9069 7.616 78.9069 7.888C78.9069 8.064 79.0909 8.224 79.4589 8.368C80.7389 8.832 81.6989 9.36 82.3389 9.952C82.9949 10.544 83.3229 11.432 83.3229 12.616C83.3229 13.8 83.0189 14.704 82.4109 15.328C81.8029 15.936 80.8669 16.24 79.6029 16.24C78.3549 16.24 77.1069 16.08 75.8589 15.76L76.1229 12.52C77.7229 12.952 78.7549 13.168 79.2189 13.168C79.6989 13.168 79.9389 13.056 79.9389 12.832C79.9389 12.608 79.7629 12.432 79.4109 12.304C77.9869 11.76 76.9469 11.184 76.2909 10.576C75.6349 9.952 75.3069 9.064 75.3069 7.912Z" fill="currentColor"/>
</svg>
