<svg  viewBox="0 0 24 24" fill="none" xmlns="http://www.w3.org/2000/svg">
<path d="M10.5 12C10.5 11.1716 11.1716 10.5 12 10.5C12.8284 10.5 13.5 11.1716 13.5 12C13.5 12.8284 12.8284 13.5 12 13.5C11.1716 13.5 10.5 12.8284 10.5 12Z" fill="currentColor"/>
<path d="M10.5 19C10.5 18.1716 11.1716 17.5 12 17.5C12.8284 17.5 13.5 18.1716 13.5 19C13.5 19.8284 12.8284 20.5 12 20.5C11.1716 20.5 10.5 19.8284 10.5 19Z" fill="currentColor"/>
<path d="M10.5 5C10.5 4.17157 11.1716 3.5 12 3.5C12.8284 3.5 13.5 4.17157 13.5 5C13.5 5.82843 12.8284 6.5 12 6.5C11.1716 6.5 10.5 5.82843 10.5 5Z" fill="currentColor"/>
</svg>
